<svg xmlns="http://www.w3.org/2000/svg" xmlns:xlink="http://www.w3.org/1999/xlink" width="377" zoomAndPan="magnify" viewBox="0 0 283.5 283.500005" height="377" preserveAspectRatio="xMidYMid meet" version="1.0"><defs><clipPath id="6aedf4b104"><path d="M 0 68 L 266 68 L 266 283 L 0 283 Z M 0 68 " clip-rule="nonzero"/></clipPath><clipPath id="7aea45d9a4"><path d="M 193.71875 335.050781 L -50.71875 193.925781 L 23.023438 66.195312 L 267.460938 207.320312 Z M 193.71875 335.050781 " clip-rule="nonzero"/></clipPath><clipPath id="156121be4f"><path d="M 193.71875 335.050781 L -50.71875 193.925781 L 23.023438 66.195312 L 267.460938 207.320312 Z M 193.71875 335.050781 " clip-rule="nonzero"/></clipPath><clipPath id="df0ad8d64f"><path d="M 11 3 L 283 3 L 283 224 L 11 224 Z M 11 3 " clip-rule="nonzero"/></clipPath><clipPath id="ca1f3eb148"><path d="M 84.90625 -49.488281 L 335.179688 95.007812 L 259.9375 225.332031 L 9.664062 80.835938 Z M 84.90625 -49.488281 " clip-rule="nonzero"/></clipPath><clipPath id="a1f35ec38f"><path d="M 84.90625 -49.488281 L 335.179688 95.007812 L 259.9375 225.332031 L 9.664062 80.835938 Z M 84.90625 -49.488281 " clip-rule="nonzero"/></clipPath></defs><g clip-path="url(#6aedf4b104)"><g clip-path="url(#7aea45d9a4)"><g clip-path="url(#156121be4f)"><path fill="#e1a2ea" d="M 27.8125 69.324219 L 262.277344 204.691406 C 262.617188 204.882812 262.9375 205.109375 263.234375 205.363281 C 263.53125 205.621094 263.796875 205.902344 264.039062 206.210938 C 264.277344 206.519531 264.484375 206.851562 264.660156 207.199219 C 264.832031 207.550781 264.972656 207.914062 265.074219 208.292969 C 265.175781 208.671875 265.238281 209.054688 265.261719 209.445312 C 265.289062 209.835938 265.273438 210.226562 265.222656 210.613281 C 265.171875 211 265.078125 211.378906 264.953125 211.75 C 264.824219 212.121094 264.660156 212.472656 264.460938 212.8125 C 263.304688 214.8125 262.101562 216.785156 260.847656 218.726562 C 259.59375 220.671875 258.292969 222.582031 256.945312 224.460938 C 255.597656 226.339844 254.207031 228.183594 252.765625 229.996094 C 251.328125 231.804688 249.847656 233.578125 248.324219 235.316406 C 246.796875 237.054688 245.230469 238.753906 243.621094 240.414062 C 242.015625 242.078125 240.367188 243.695312 238.679688 245.277344 C 236.992188 246.855469 235.265625 248.394531 233.5 249.890625 C 231.738281 251.386719 229.9375 252.835938 228.105469 254.242188 C 226.269531 255.652344 224.402344 257.011719 222.5 258.328125 C 220.597656 259.640625 218.664062 260.910156 216.703125 262.128906 C 214.738281 263.351562 212.746094 264.523438 210.722656 265.644531 C 208.703125 266.769531 206.65625 267.839844 204.582031 268.863281 C 202.507812 269.886719 200.410156 270.855469 198.289062 271.773438 C 196.167969 272.695312 194.023438 273.5625 191.859375 274.375 C 189.695312 275.1875 187.515625 275.949219 185.3125 276.65625 C 183.109375 277.363281 180.894531 278.015625 178.660156 278.613281 C 176.425781 279.210938 174.179688 279.753906 171.917969 280.242188 C 169.660156 280.730469 167.390625 281.160156 165.109375 281.539062 C 162.828125 281.914062 160.539062 282.234375 158.242188 282.5 C 155.945312 282.761719 153.640625 282.96875 151.335938 283.121094 C 149.027344 283.273438 146.71875 283.367188 144.40625 283.402344 C 142.09375 283.441406 139.78125 283.421875 137.472656 283.347656 C 135.160156 283.269531 132.855469 283.136719 130.550781 282.949219 C 128.246094 282.757812 125.945312 282.511719 123.652344 282.210938 C 121.363281 281.910156 119.078125 281.550781 116.804688 281.136719 C 114.527344 280.722656 112.265625 280.253906 110.015625 279.726562 C 107.761719 279.203125 105.523438 278.625 103.300781 277.988281 C 101.078125 277.351562 98.871094 276.664062 96.683594 275.921875 C 94.492188 275.175781 92.324219 274.382812 90.171875 273.53125 C 88.023438 272.679688 85.894531 271.78125 83.789062 270.824219 C 81.683594 269.871094 79.601562 268.867188 77.546875 267.808594 C 75.488281 266.753906 73.460938 265.644531 71.457031 264.492188 C 69.453125 263.335938 67.480469 262.128906 65.539062 260.878906 C 63.59375 259.625 61.683594 258.324219 59.804688 256.976562 C 57.925781 255.632812 56.082031 254.238281 54.269531 252.800781 C 52.457031 251.363281 50.683594 249.882812 48.945312 248.359375 C 47.207031 246.835938 45.507812 245.269531 43.84375 243.660156 C 42.183594 242.054688 40.5625 240.40625 38.980469 238.71875 C 37.402344 237.03125 35.863281 235.304688 34.367188 233.542969 C 32.871094 231.78125 31.417969 229.980469 30.011719 228.148438 C 28.605469 226.3125 27.242188 224.445312 25.925781 222.542969 C 24.609375 220.644531 23.339844 218.710938 22.121094 216.746094 C 20.898438 214.785156 19.726562 212.792969 18.605469 210.769531 C 17.480469 208.75 16.40625 206.703125 15.382812 204.628906 C 14.359375 202.554688 13.390625 200.457031 12.46875 198.335938 C 11.550781 196.214844 10.683594 194.074219 9.867188 191.910156 C 9.054688 189.746094 8.292969 187.5625 7.585938 185.363281 C 6.875 183.160156 6.222656 180.945312 5.625 178.710938 C 5.027344 176.476562 4.480469 174.230469 3.992188 171.972656 C 3.503906 169.710938 3.074219 167.441406 2.695312 165.160156 C 2.316406 162.878906 1.996094 160.589844 1.734375 158.292969 C 1.46875 155.996094 1.257812 153.695312 1.109375 151.386719 C 0.957031 149.078125 0.859375 146.769531 0.824219 144.457031 C 0.785156 142.148438 0.804688 139.835938 0.878906 137.523438 C 0.953125 135.214844 1.085938 132.90625 1.273438 130.601562 C 1.460938 128.296875 1.707031 126 2.007812 123.707031 C 2.308594 121.414062 2.664062 119.128906 3.078125 116.855469 C 3.492188 114.582031 3.960938 112.316406 4.484375 110.066406 C 5.011719 107.8125 5.589844 105.578125 6.222656 103.351562 C 6.859375 101.128906 7.546875 98.921875 8.289062 96.734375 C 9.03125 94.542969 9.828125 92.375 10.675781 90.222656 C 11.523438 88.074219 12.425781 85.945312 13.378906 83.839844 C 14.332031 81.730469 15.339844 79.648438 16.394531 77.59375 C 17.449219 75.535156 18.554688 73.507812 19.710938 71.503906 C 19.902344 71.164062 20.128906 70.847656 20.382812 70.554688 C 20.640625 70.257812 20.921875 69.992188 21.230469 69.753906 C 21.539062 69.515625 21.867188 69.308594 22.21875 69.136719 C 22.566406 68.960938 22.929688 68.824219 23.308594 68.722656 C 23.683594 68.621094 24.066406 68.558594 24.457031 68.53125 C 24.84375 68.507812 25.234375 68.519531 25.621094 68.574219 C 26.007812 68.625 26.382812 68.710938 26.753906 68.839844 C 27.121094 68.964844 27.476562 69.128906 27.8125 69.324219 Z M 27.8125 69.324219 " fill-opacity="1" fill-rule="nonzero"/></g></g></g><g clip-path="url(#df0ad8d64f)"><g clip-path="url(#ca1f3eb148)"><g clip-path="url(#a1f35ec38f)"><path fill="#211f50" d="M 254.804688 222.644531 L 14.695312 84.015625 C 14.34375 83.820312 14.019531 83.589844 13.714844 83.328125 C 13.410156 83.066406 13.136719 82.777344 12.890625 82.460938 C 12.644531 82.144531 12.433594 81.804688 12.253906 81.445312 C 12.074219 81.089844 11.933594 80.714844 11.832031 80.328125 C 11.726562 79.941406 11.660156 79.546875 11.636719 79.148438 C 11.609375 78.746094 11.625 78.347656 11.679688 77.953125 C 11.730469 77.554688 11.824219 77.167969 11.957031 76.789062 C 12.085938 76.410156 12.253906 76.046875 12.457031 75.703125 C 13.640625 73.652344 14.875 71.632812 16.160156 69.640625 C 17.441406 67.652344 18.773438 65.695312 20.15625 63.773438 C 21.535156 61.847656 22.960938 59.957031 24.433594 58.105469 C 25.90625 56.25 27.421875 54.433594 28.984375 52.652344 C 30.546875 50.875 32.152344 49.132812 33.796875 47.433594 C 35.445312 45.730469 37.132812 44.070312 38.859375 42.453125 C 40.589844 40.835938 42.355469 39.261719 44.164062 37.730469 C 45.96875 36.199219 47.8125 34.710938 49.691406 33.269531 C 51.570312 31.832031 53.480469 30.4375 55.429688 29.089844 C 57.375 27.742188 59.355469 26.445312 61.367188 25.195312 C 63.378906 23.945312 65.417969 22.746094 67.488281 21.59375 C 69.558594 20.445312 71.65625 19.347656 73.777344 18.300781 C 75.902344 17.253906 78.050781 16.257812 80.222656 15.316406 C 82.394531 14.375 84.589844 13.488281 86.804688 12.65625 C 89.023438 11.820312 91.257812 11.042969 93.511719 10.320312 C 95.765625 9.59375 98.035156 8.925781 100.324219 8.316406 C 102.613281 7.703125 104.914062 7.144531 107.226562 6.648438 C 109.542969 6.148438 111.867188 5.707031 114.203125 5.320312 C 116.539062 4.933594 118.882812 4.605469 121.234375 4.335938 C 123.585938 4.066406 125.945312 3.855469 128.308594 3.699219 C 130.671875 3.542969 133.035156 3.449219 135.402344 3.410156 C 137.769531 3.371094 140.136719 3.390625 142.503906 3.46875 C 144.871094 3.546875 147.234375 3.683594 149.59375 3.875 C 151.953125 4.070312 154.308594 4.320312 156.652344 4.628906 C 159 4.9375 161.339844 5.304688 163.667969 5.730469 C 166 6.152344 168.316406 6.636719 170.621094 7.171875 C 172.929688 7.710938 175.21875 8.304688 177.496094 8.953125 C 179.773438 9.605469 182.03125 10.3125 184.273438 11.070312 C 186.515625 11.832031 188.738281 12.648438 190.941406 13.519531 C 193.144531 14.390625 195.320312 15.3125 197.480469 16.289062 C 199.636719 17.269531 201.765625 18.296875 203.875 19.378906 C 205.980469 20.460938 208.058594 21.59375 210.109375 22.777344 C 212.160156 23.960938 214.179688 25.195312 216.167969 26.476562 C 218.160156 27.761719 220.117188 29.09375 222.039062 30.472656 C 223.964844 31.851562 225.855469 33.277344 227.710938 34.746094 C 229.566406 36.21875 231.382812 37.734375 233.164062 39.296875 C 234.941406 40.859375 236.683594 42.460938 238.386719 44.109375 C 240.085938 45.753906 241.746094 47.441406 243.363281 49.171875 C 244.984375 50.898438 246.558594 52.664062 248.089844 54.472656 C 249.621094 56.277344 251.109375 58.117188 252.550781 59.996094 C 253.992188 61.875 255.386719 63.789062 256.734375 65.734375 C 258.082031 67.679688 259.382812 69.660156 260.632812 71.671875 C 261.882812 73.679688 263.082031 75.71875 264.234375 77.789062 C 265.382812 79.859375 266.484375 81.957031 267.53125 84.078125 C 268.578125 86.203125 269.574219 88.351562 270.515625 90.523438 C 271.457031 92.695312 272.34375 94.890625 273.179688 97.105469 C 274.015625 99.320312 274.792969 101.554688 275.519531 103.808594 C 276.242188 106.0625 276.910156 108.335938 277.523438 110.621094 C 278.136719 112.910156 278.695312 115.210938 279.195312 117.523438 C 279.695312 119.839844 280.140625 122.164062 280.523438 124.5 C 280.910156 126.835938 281.238281 129.179688 281.511719 131.53125 C 281.78125 133.882812 281.996094 136.242188 282.152344 138.605469 C 282.304688 140.964844 282.402344 143.332031 282.441406 145.699219 C 282.480469 148.066406 282.464844 150.433594 282.386719 152.800781 C 282.308594 155.167969 282.175781 157.53125 281.980469 159.890625 C 281.789062 162.25 281.539062 164.601562 281.230469 166.949219 C 280.921875 169.296875 280.554688 171.636719 280.132812 173.964844 C 279.707031 176.296875 279.230469 178.613281 278.691406 180.921875 C 278.15625 183.226562 277.5625 185.515625 276.910156 187.792969 C 276.261719 190.070312 275.558594 192.332031 274.796875 194.574219 C 274.035156 196.816406 273.222656 199.039062 272.351562 201.242188 C 271.484375 203.441406 270.558594 205.621094 269.582031 207.777344 C 268.605469 209.9375 267.578125 212.066406 266.496094 214.175781 C 265.414062 216.28125 264.285156 218.359375 263.101562 220.410156 C 262.902344 220.757812 262.671875 221.082031 262.410156 221.382812 C 262.148438 221.6875 261.859375 221.957031 261.542969 222.203125 C 261.226562 222.449219 260.890625 222.660156 260.53125 222.835938 C 260.175781 223.011719 259.804688 223.152344 259.417969 223.257812 C 259.03125 223.363281 258.640625 223.425781 258.242188 223.453125 C 257.84375 223.476562 257.445312 223.464844 257.050781 223.414062 C 256.652344 223.359375 256.265625 223.269531 255.886719 223.140625 C 255.511719 223.007812 255.148438 222.84375 254.804688 222.644531 Z M 254.804688 222.644531 " fill-opacity="1" fill-rule="nonzero"/></g></g></g></svg>