<svg xmlns="http://www.w3.org/2000/svg" xmlns:xlink="http://www.w3.org/1999/xlink" width="377" zoomAndPan="magnify" viewBox="0 0 283.5 283.500005" height="377" preserveAspectRatio="xMidYMid meet" version="1.0"><defs><g/><clipPath id="6182524a19"><path d="M 0 0 L 282.964844 0 L 282.964844 282.964844 L 0 282.964844 Z M 0 0 " clip-rule="nonzero"/></clipPath><clipPath id="e32c829f6e"><path d="M 141.484375 0 C 63.34375 0 0 63.34375 0 141.484375 C 0 219.621094 63.34375 282.964844 141.484375 282.964844 C 219.621094 282.964844 282.964844 219.621094 282.964844 141.484375 C 282.964844 63.34375 219.621094 0 141.484375 0 Z M 141.484375 0 " clip-rule="nonzero"/></clipPath><clipPath id="26822da4f4"><path d="M 116 143 L 168 143 L 168 159.101562 L 116 159.101562 Z M 116 143 " clip-rule="nonzero"/></clipPath><clipPath id="bfa67e5433"><path d="M 113.492188 125 L 133 125 L 133 157 L 113.492188 157 Z M 113.492188 125 " clip-rule="nonzero"/></clipPath><clipPath id="078c4b089d"><path d="M 116 123.167969 L 168 123.167969 L 168 145 L 116 145 Z M 116 123.167969 " clip-rule="nonzero"/></clipPath><clipPath id="6748542a22"><path d="M 151 125 L 170.394531 125 L 170.394531 157 L 151 157 Z M 151 125 " clip-rule="nonzero"/></clipPath></defs><g clip-path="url(#6182524a19)"><g clip-path="url(#e32c829f6e)"><path fill="#e2a5ed" d="M 0 0 L 282.964844 0 L 282.964844 282.964844 L 0 282.964844 Z M 0 0 " fill-opacity="1" fill-rule="nonzero"/></g></g><g clip-path="url(#26822da4f4)"><path fill="#ffffff" d="M 167.253906 158.449219 L 149.394531 143.847656 C 148.875 143.417969 148.117188 143.417969 147.59375 143.847656 L 142.785156 147.78125 C 142.300781 148.175781 141.597656 148.175781 141.113281 147.78125 L 136.304688 143.847656 C 135.78125 143.417969 135.023438 143.417969 134.503906 143.847656 L 116.644531 158.449219 C 116.398438 158.648438 116.542969 159.042969 116.863281 159.042969 L 167.035156 159.042969 C 167.355469 159.042969 167.5 158.648438 167.253906 158.449219 " fill-opacity="1" fill-rule="nonzero"/></g><g clip-path="url(#bfa67e5433)"><path fill="#ffffff" d="M 132.273438 140.550781 L 114.058594 125.65625 C 113.839844 125.476562 113.5 125.632812 113.5 125.914062 L 113.5 156.351562 C 113.5 156.632812 113.839844 156.789062 114.058594 156.609375 L 132.273438 141.714844 C 132.644531 141.414062 132.644531 140.851562 132.273438 140.550781 " fill-opacity="1" fill-rule="nonzero"/></g><g clip-path="url(#078c4b089d)"><path fill="#ffffff" d="M 116.644531 123.816406 L 141.265625 143.949219 C 141.664062 144.273438 142.238281 144.273438 142.632812 143.949219 L 167.253906 123.816406 C 167.5 123.617188 167.355469 123.222656 167.035156 123.222656 L 116.863281 123.222656 C 116.542969 123.222656 116.398438 123.617188 116.644531 123.816406 " fill-opacity="1" fill-rule="nonzero"/></g><g clip-path="url(#6748542a22)"><path fill="#ffffff" d="M 169.839844 125.65625 L 151.625 140.550781 C 151.257812 140.851562 151.257812 141.414062 151.625 141.714844 L 169.839844 156.609375 C 170.0625 156.789062 170.398438 156.636719 170.398438 156.351562 L 170.398438 125.914062 C 170.398438 125.632812 170.0625 125.476562 169.839844 125.65625 " fill-opacity="1" fill-rule="nonzero"/></g><g fill="#ffffff" fill-opacity="1"><g transform="translate(68.159173, 55.666283)"><g><path d="M 14.375 -6.921875 L 7.4375 -21.328125 L 4.359375 -19.84375 L 7.09375 -14.1875 L 0.28125 -10.90625 L -2.453125 -16.5625 L -5.515625 -15.09375 L 1.421875 -0.6875 L 4.484375 -2.15625 L 1.578125 -8.203125 L 8.390625 -11.484375 L 11.296875 -5.4375 Z M 14.375 -6.921875 "/></g></g></g><g fill="#ffffff" fill-opacity="1"><g transform="translate(84.325606, 47.945407)"><g><path d="M 15.578125 -5.40625 L 4.5 -18.484375 L 0.484375 -17.078125 L -0.125 0.046875 L 3.40625 -1.1875 L 3.46875 -4.109375 L 10.203125 -6.453125 L 12.0625 -4.1875 Z M 8.359375 -8.9375 L 3.34375 -7.203125 L 3.453125 -15 Z M 8.359375 -8.9375 "/></g></g></g><g fill="#ffffff" fill-opacity="1"><g transform="translate(100.230018, 42.463162)"><g><path d="M 9.984375 -2.28125 C 12.96875 -2.96875 14.109375 -5.203125 13.5625 -7.53125 C 13.125 -9.5 11.40625 -10.78125 9.703125 -10.671875 C 11.09375 -11.296875 12.015625 -12.890625 11.5625 -14.859375 C 11.09375 -16.921875 9.140625 -18.484375 6.171875 -17.796875 L -2.03125 -15.9375 L 1.53125 -0.359375 Z M 1.9375 -13.859375 L 6.09375 -14.8125 C 7.203125 -15.0625 8.078125 -14.484375 8.296875 -13.53125 C 8.53125 -12.515625 8 -11.640625 6.890625 -11.390625 L 2.734375 -10.4375 Z M 3.375 -7.59375 L 7.640625 -8.578125 C 8.953125 -8.875 9.84375 -8.203125 10.078125 -7.21875 C 10.328125 -6.09375 9.75 -5.1875 8.484375 -4.90625 L 4.21875 -3.921875 Z M 3.375 -7.59375 "/></g></g></g><g fill="#ffffff" fill-opacity="1"><g transform="translate(116.233319, 38.911789)"><g><path d="M 11.640625 -1.5 L 11.265625 -4.46875 L 4.5625 -3.609375 L 2.90625 -16.5 L -0.46875 -16.0625 L 1.5625 -0.203125 Z M 11.640625 -1.5 "/></g></g></g><g fill="#ffffff" fill-opacity="1"><g transform="translate(129.209071, 37.238436)"><g><path d="M 12.875 -0.46875 L 12.765625 -3.421875 L 4.875 -3.140625 L 4.734375 -6.84375 L 12.453125 -7.125 L 12.359375 -10.046875 L 4.640625 -9.765625 L 4.5 -13.21875 L 12.390625 -13.5 L 12.296875 -16.4375 L 1 -16.03125 L 1.578125 -0.0625 Z M 12.875 -0.46875 "/></g></g></g><g fill="#ffffff" fill-opacity="1"><g transform="translate(143.567118, 36.546603)"><g><path d="M 18.84375 1.5 L 20.109375 -14.4375 L 15.328125 -14.8125 L 10.6875 -5.1875 L 7.59375 -15.4375 L 2.84375 -15.8125 L 1.578125 0.125 L 4.96875 0.390625 L 5.890625 -11.078125 L 9.453125 0.75 L 10.9375 0.875 L 16.34375 -10.234375 L 15.421875 1.234375 Z M 18.84375 1.5 "/></g></g></g><g fill="#ffffff" fill-opacity="1"><g transform="translate(164.282553, 38.291081)"><g><path d="M 2.453125 -7.625 C 1.453125 -2.921875 4.171875 1.1875 8.890625 2.1875 C 13.609375 3.1875 17.78125 0.546875 18.78125 -4.15625 C 19.78125 -8.875 17.046875 -12.96875 12.328125 -13.96875 C 7.609375 -14.96875 3.453125 -12.34375 2.453125 -7.625 Z M 15.359375 -4.875 C 14.75 -1.96875 12.390625 -0.15625 9.515625 -0.765625 C 6.625 -1.375 5.265625 -4 5.875 -6.90625 C 6.5 -9.84375 8.8125 -11.625 11.703125 -11.015625 C 14.578125 -10.40625 15.984375 -7.8125 15.359375 -4.875 Z M 15.359375 -4.875 "/></g></g></g><g fill="#ffffff" fill-opacity="1"><g transform="translate(182.593099, 42.322273)"><g><path d="M 1.15625 -1.984375 C 2.125 -0.09375 3.875 1.578125 6.796875 2.546875 C 10.875 3.90625 13.578125 2.46875 14.5 -0.296875 C 15.609375 -3.671875 12.65625 -5.453125 10.359375 -6.84375 C 8.75 -7.859375 7.578125 -8.609375 7.90625 -9.625 C 8.21875 -10.53125 9.203125 -10.90625 10.65625 -10.421875 C 12.140625 -9.9375 13.59375 -8.859375 14.453125 -7.328125 L 17.03125 -9.078125 C 15.984375 -10.984375 14.234375 -12.359375 11.8125 -13.171875 C 8.25 -14.34375 5.375 -13.03125 4.546875 -10.515625 C 3.421875 -7.125 6.375 -5.375 8.65625 -4 C 10.28125 -2.984375 11.46875 -2.171875 11.09375 -1.03125 C 10.8125 -0.15625 9.671875 0.375 7.890625 -0.203125 C 5.796875 -0.90625 4.453125 -2.390625 3.75 -3.859375 Z M 1.15625 -1.984375 "/></g></g></g><g fill="#ffffff" fill-opacity="1"><g transform="translate(196.814069, 47.222297)"><g/></g></g><g fill="#ffffff" fill-opacity="1"><g transform="translate(203.253326, 49.908967)"><g/></g></g><g fill="#ffffff" fill-opacity="1"><g transform="translate(209.561971, 52.889357)"><g><path d="M 1.78125 -0.953125 C 1.296875 -0.015625 1.65625 1.171875 2.578125 1.65625 C 3.53125 2.15625 4.71875 1.78125 5.203125 0.84375 C 5.703125 -0.09375 5.34375 -1.265625 4.390625 -1.765625 C 3.46875 -2.25 2.28125 -1.890625 1.78125 -0.953125 Z M 1.78125 -0.953125 "/></g></g></g><g fill="#ffffff" fill-opacity="1"><g transform="translate(219.879438, 73.548068)"><g><path d="M 7.640625 14 L 21.671875 6.34375 L 20.03125 3.34375 L 14.515625 6.359375 L 10.90625 -0.265625 L 16.421875 -3.28125 L 14.78125 -6.265625 L 0.75 1.390625 L 2.390625 4.375 L 8.28125 1.15625 L 11.890625 7.78125 L 6 11 Z M 7.640625 14 "/></g></g></g><g fill="#ffffff" fill-opacity="1"><g transform="translate(228.373115, 89.229372)"><g><path d="M 6 15.359375 L 18.640625 3.8125 L 17.09375 -0.171875 L -0.046875 -0.109375 L 1.3125 3.359375 L 4.25 3.3125 L 6.84375 9.953125 L 4.640625 11.890625 Z M 9.25 8.015625 L 7.328125 3.078125 L 15.125 2.890625 Z M 9.25 8.015625 "/></g></g></g><g fill="#ffffff" fill-opacity="1"><g transform="translate(234.426546, 104.841485)"><g><path d="M 2.546875 9.9375 C 3.296875 12.875 5.546875 13.96875 7.859375 13.375 C 9.8125 12.875 11.078125 11.140625 10.921875 9.40625 C 11.59375 10.796875 13.1875 11.6875 15.140625 11.1875 C 17.203125 10.671875 18.71875 8.671875 17.953125 5.71875 L 15.875 -2.421875 L 0.390625 1.53125 Z M 13.90625 1.59375 L 14.96875 5.734375 C 15.25 6.828125 14.671875 7.71875 13.71875 7.953125 C 12.71875 8.21875 11.84375 7.6875 11.5625 6.59375 L 10.5 2.453125 Z M 7.6875 3.171875 L 8.765625 7.40625 C 9.109375 8.71875 8.4375 9.625 7.46875 9.875 C 6.359375 10.15625 5.4375 9.609375 5.109375 8.34375 L 4.03125 4.109375 Z M 7.6875 3.171875 "/></g></g></g><g fill="#ffffff" fill-opacity="1"><g transform="translate(238.359552, 120.682214)"><g><path d="M 1.65625 11.609375 L 4.625 11.1875 L 3.671875 4.515625 L 16.53125 2.671875 L 16.046875 -0.703125 L 0.21875 1.5625 Z M 1.65625 11.609375 "/></g></g></g><g fill="#ffffff" fill-opacity="1"><g transform="translate(240.215621, 133.566753)"><g><path d="M 0.53125 12.875 L 3.484375 12.75 L 3.15625 4.859375 L 6.859375 4.71875 L 7.171875 12.4375 L 10.078125 12.3125 L 9.765625 4.59375 L 13.234375 4.453125 L 13.5625 12.34375 L 16.5 12.21875 L 16.03125 0.921875 L 0.0625 1.578125 Z M 0.53125 12.875 "/></g></g></g><g fill="#ffffff" fill-opacity="1"><g transform="translate(240.987879, 147.84124)"><g><path d="M -1.671875 18.828125 L 14.25 20.25 L 14.671875 15.46875 L 5.078125 10.71875 L 15.359375 7.734375 L 15.78125 3 L -0.140625 1.578125 L -0.4375 4.96875 L 11.015625 5.984375 L -0.84375 9.453125 L -0.96875 10.921875 L 10.078125 16.421875 L -1.375 15.40625 Z M -1.671875 18.828125 "/></g></g></g><g fill="#ffffff" fill-opacity="1"><g transform="translate(239.060672, 168.448365)"><g><path d="M 7.5625 2.640625 C 2.890625 1.53125 -1.28125 4.140625 -2.40625 8.84375 C -3.515625 13.546875 -0.96875 17.78125 3.703125 18.890625 C 8.40625 20 12.5625 17.359375 13.671875 12.65625 C 14.796875 7.953125 12.265625 3.75 7.5625 2.640625 Z M 4.5 15.484375 C 1.609375 14.796875 -0.140625 12.390625 0.53125 9.53125 C 1.21875 6.65625 3.859375 5.359375 6.75 6.046875 C 9.671875 6.734375 11.421875 9.09375 10.734375 11.96875 C 10.0625 14.828125 7.421875 16.171875 4.5 15.484375 Z M 4.5 15.484375 "/></g></g></g><g fill="#ffffff" fill-opacity="1"><g transform="translate(234.603707, 186.577362)"><g><path d="M 1.9375 1.234375 C 0.015625 2.125 -1.734375 3.828125 -2.796875 6.71875 C -4.296875 10.734375 -2.96875 13.46875 -0.234375 14.484375 C 3.09375 15.734375 5 12.859375 6.484375 10.59375 C 7.53125 9.03125 8.3125 7.890625 9.328125 8.265625 C 10.21875 8.59375 10.578125 9.59375 10.03125 11.015625 C 9.484375 12.484375 8.359375 13.90625 6.796875 14.703125 L 8.46875 17.34375 C 10.390625 16.375 11.84375 14.65625 12.734375 12.28125 C 14.046875 8.765625 12.828125 5.84375 10.34375 4.921875 C 6.984375 3.671875 5.140625 6.5625 3.671875 8.8125 C 2.625 10.375 1.75 11.546875 0.640625 11.125 C -0.21875 10.8125 -0.734375 9.65625 -0.078125 7.890625 C 0.6875 5.828125 2.21875 4.53125 3.71875 3.890625 Z M 1.9375 1.234375 "/></g></g></g><g fill="#ffffff" fill-opacity="1"><g transform="translate(229.192589, 200.553867)"><g/></g></g><g fill="#ffffff" fill-opacity="1"><g transform="translate(226.235126, 206.835457)"><g/></g></g><g fill="#ffffff" fill-opacity="1"><g transform="translate(222.959449, 212.957119)"><g><path d="M 0.859375 1.828125 C -0.046875 1.296875 -1.265625 1.59375 -1.8125 2.484375 C -2.359375 3.390625 -2.03125 4.625 -1.125 5.15625 C -0.21875 5.703125 0.96875 5.390625 1.515625 4.484375 C 2.0625 3.59375 1.765625 2.375 0.859375 1.828125 Z M 0.859375 1.828125 "/></g></g></g><g fill="#ffffff" fill-opacity="1"><g transform="translate(63.745305, 211.245958)"><g><path d="M -8 -13.796875 L -21.828125 -5.78125 L -20.109375 -2.828125 L -14.671875 -5.984375 L -10.890625 0.546875 L -16.328125 3.703125 L -14.625 6.65625 L -0.796875 -1.359375 L -2.5 -4.3125 L -8.296875 -0.953125 L -12.078125 -7.484375 L -6.28125 -10.84375 Z M -8 -13.796875 "/></g></g></g><g fill="#ffffff" fill-opacity="1"><g transform="translate(54.852275, 195.787657)"><g><path d="M -6.390625 -15.203125 L -18.734375 -3.328125 L -17.078125 0.59375 L 0.046875 0.109375 L -1.390625 -3.328125 L -4.328125 -3.203125 L -7.09375 -9.78125 L -4.9375 -11.765625 Z M -9.453125 -7.78125 L -7.40625 -2.890625 L -15.1875 -2.5 Z M -9.453125 -7.78125 "/></g></g></g><g fill="#ffffff" fill-opacity="1"><g transform="translate(48.400386, 180.335958)"><g><path d="M -2.796875 -9.859375 C -3.625 -12.796875 -5.90625 -13.8125 -8.21875 -13.171875 C -10.15625 -12.625 -11.359375 -10.84375 -11.140625 -9.125 C -11.859375 -10.515625 -13.5 -11.359375 -15.4375 -10.796875 C -17.484375 -10.21875 -18.921875 -8.171875 -18.09375 -5.25 L -15.8125 2.84375 L -0.4375 -1.515625 Z M -13.9375 -1.234375 L -15.09375 -5.34375 C -15.40625 -6.4375 -14.875 -7.328125 -13.9375 -7.59375 C -12.9375 -7.875 -12.03125 -7.390625 -11.71875 -6.296875 L -10.5625 -2.1875 Z M -7.765625 -2.984375 L -8.953125 -7.1875 C -9.328125 -8.484375 -8.6875 -9.40625 -7.71875 -9.671875 C -6.609375 -10 -5.6875 -9.46875 -5.328125 -8.21875 L -4.140625 -4.015625 Z M -7.765625 -2.984375 "/></g></g></g><g fill="#ffffff" fill-opacity="1"><g transform="translate(44.062293, 164.601311)"><g><path d="M -1.953125 -11.5625 L -4.90625 -11.0625 L -3.78125 -4.421875 L -16.59375 -2.25 L -16.03125 1.109375 L -0.265625 -1.5625 Z M -1.953125 -11.5625 "/></g></g></g><g fill="#ffffff" fill-opacity="1"><g transform="translate(41.876409, 151.768615)"><g><path d="M -0.859375 -12.859375 L -3.8125 -12.65625 L -3.28125 -4.765625 L -6.96875 -4.53125 L -7.484375 -12.25 L -10.40625 -12.046875 L -9.890625 -4.328125 L -13.34375 -4.109375 L -13.875 -12 L -16.8125 -11.796875 L -16.0625 -0.515625 L -0.109375 -1.578125 Z M -0.859375 -12.859375 "/></g></g></g><g fill="#ffffff" fill-opacity="1"><g transform="translate(40.738319, 137.518652)"><g><path d="M 1.1875 -18.875 L -14.765625 -19.875 L -15.0625 -15.078125 L -5.359375 -10.59375 L -15.546875 -7.328125 L -15.859375 -2.578125 L 0.09375 -1.578125 L 0.3125 -4.96875 L -11.171875 -5.6875 L 0.59375 -9.46875 L 0.6875 -10.953125 L -10.515625 -16.15625 L 0.96875 -15.4375 Z M 1.1875 -18.875 "/></g></g></g><g fill="#ffffff" fill-opacity="1"><g transform="translate(42.136244, 116.868853)"><g><path d="M -7.625 -2.4375 C -2.921875 -1.453125 1.171875 -4.171875 2.171875 -8.890625 C 3.171875 -13.625 0.515625 -17.796875 -4.1875 -18.78125 C -8.90625 -19.78125 -13 -17.03125 -14 -12.296875 C -15 -7.578125 -12.34375 -3.4375 -7.625 -2.4375 Z M -4.90625 -15.359375 C -2 -14.75 -0.171875 -12.390625 -0.78125 -9.515625 C -1.390625 -6.625 -4 -5.25 -6.90625 -5.859375 C -9.84375 -6.484375 -11.65625 -8.796875 -11.046875 -11.6875 C -10.4375 -14.5625 -7.84375 -15.984375 -4.90625 -15.359375 Z M -4.90625 -15.359375 "/></g></g></g><g fill="#ffffff" fill-opacity="1"><g transform="translate(46.12686, 98.631509)"><g><path d="M -1.96875 -1.1875 C -0.0625 -2.125 1.625 -3.859375 2.625 -6.78125 C 4.03125 -10.84375 2.625 -13.546875 -0.140625 -14.5 C -3.5 -15.65625 -5.328125 -12.71875 -6.734375 -10.421875 C -7.765625 -8.828125 -8.515625 -7.65625 -9.546875 -8.015625 C -10.4375 -8.328125 -10.8125 -9.328125 -10.3125 -10.765625 C -9.796875 -12.25 -8.71875 -13.6875 -7.171875 -14.515625 L -8.890625 -17.125 C -10.796875 -16.09375 -12.21875 -14.359375 -13.046875 -11.9375 C -14.265625 -8.390625 -12.96875 -5.53125 -10.453125 -4.65625 C -7.078125 -3.5 -5.296875 -6.4375 -3.890625 -8.71875 C -2.890625 -10.296875 -2.046875 -11.5 -0.921875 -11.109375 C -0.0625 -10.8125 0.46875 -9.671875 -0.140625 -7.890625 C -0.84375 -5.8125 -2.34375 -4.46875 -3.8125 -3.796875 Z M -1.96875 -1.1875 "/></g></g></g><g fill="#ffffff" fill-opacity="1"><g transform="translate(51.177749, 84.520824)"><g/></g></g><g fill="#ffffff" fill-opacity="1"><g transform="translate(53.973118, 78.165437)"><g/></g></g><g fill="#ffffff" fill-opacity="1"><g transform="translate(57.090718, 71.961757)"><g><path d="M -0.90625 -1.8125 C 0 -1.296875 1.21875 -1.625 1.734375 -2.546875 C 2.265625 -3.46875 1.90625 -4.671875 1 -5.1875 C 0.078125 -5.703125 -1.109375 -5.375 -1.640625 -4.453125 C -2.15625 -3.53125 -1.828125 -2.328125 -0.90625 -1.8125 Z M -0.90625 -1.8125 "/></g></g></g><g fill="#ffffff" fill-opacity="1"><g transform="translate(60.522343, 65.926117)"><g/></g></g><g fill="#ffffff" fill-opacity="1"><g transform="translate(209.548572, 226.924614)"><g><path d="M -14.375 6.921875 L -7.4375 21.328125 L -4.359375 19.84375 L -7.09375 14.1875 L -0.28125 10.90625 L 2.453125 16.5625 L 5.515625 15.09375 L -1.421875 0.6875 L -4.484375 2.15625 L -1.578125 8.203125 L -8.390625 11.484375 L -11.296875 5.4375 Z M -14.375 6.921875 "/></g></g></g><g fill="#ffffff" fill-opacity="1"><g transform="translate(193.382137, 234.645452)"><g><path d="M -15.578125 5.40625 L -4.5 18.484375 L -0.484375 17.078125 L 0.125 -0.046875 L -3.40625 1.1875 L -3.46875 4.109375 L -10.203125 6.453125 L -12.0625 4.1875 Z M -8.359375 8.9375 L -3.34375 7.203125 L -3.453125 15 Z M -8.359375 8.9375 "/></g></g></g><g fill="#ffffff" fill-opacity="1"><g transform="translate(177.477729, 240.127724)"><g><path d="M -9.984375 2.28125 C -12.96875 2.96875 -14.109375 5.203125 -13.5625 7.53125 C -13.125 9.5 -11.40625 10.78125 -9.703125 10.671875 C -11.09375 11.296875 -12.015625 12.890625 -11.5625 14.859375 C -11.09375 16.921875 -9.140625 18.484375 -6.171875 17.796875 L 2.03125 15.9375 L -1.53125 0.359375 Z M -1.9375 13.859375 L -6.09375 14.8125 C -7.203125 15.0625 -8.078125 14.484375 -8.296875 13.53125 C -8.53125 12.515625 -8 11.640625 -6.890625 11.390625 L -2.734375 10.4375 Z M -3.375 7.59375 L -7.640625 8.578125 C -8.953125 8.875 -9.84375 8.203125 -10.078125 7.21875 C -10.328125 6.09375 -9.75 5.1875 -8.484375 4.90625 L -4.21875 3.921875 Z M -3.375 7.59375 "/></g></g></g><g fill="#ffffff" fill-opacity="1"><g transform="translate(161.474421, 243.679097)"><g><path d="M -11.640625 1.5 L -11.265625 4.46875 L -4.5625 3.609375 L -2.90625 16.5 L 0.46875 16.0625 L -1.5625 0.203125 Z M -11.640625 1.5 "/></g></g></g><g fill="#ffffff" fill-opacity="1"><g transform="translate(148.498677, 245.35245)"><g><path d="M -12.875 0.46875 L -12.765625 3.421875 L -4.875 3.140625 L -4.734375 6.84375 L -12.453125 7.125 L -12.359375 10.046875 L -4.640625 9.765625 L -4.5 13.21875 L -12.390625 13.5 L -12.296875 16.4375 L -1 16.03125 L -1.578125 0.0625 Z M -12.875 0.46875 "/></g></g></g><g fill="#ffffff" fill-opacity="1"><g transform="translate(134.140629, 246.044296)"><g><path d="M -18.84375 -1.5 L -20.109375 14.4375 L -15.328125 14.8125 L -10.6875 5.1875 L -7.59375 15.4375 L -2.84375 15.8125 L -1.578125 -0.125 L -4.96875 -0.390625 L -5.890625 11.078125 L -9.453125 -0.75 L -10.9375 -0.875 L -16.34375 10.234375 L -15.421875 -1.234375 Z M -18.84375 -1.5 "/></g></g></g><g fill="#ffffff" fill-opacity="1"><g transform="translate(113.425189, 244.299815)"><g><path d="M -2.453125 7.625 C -1.453125 2.921875 -4.171875 -1.1875 -8.890625 -2.1875 C -13.609375 -3.1875 -17.78125 -0.546875 -18.78125 4.15625 C -19.78125 8.875 -17.046875 12.96875 -12.328125 13.96875 C -7.609375 14.96875 -3.453125 12.34375 -2.453125 7.625 Z M -15.359375 4.875 C -14.75 1.96875 -12.390625 0.15625 -9.515625 0.765625 C -6.625 1.375 -5.265625 4 -5.875 6.90625 C -6.5 9.84375 -8.8125 11.625 -11.703125 11.015625 C -14.578125 10.40625 -15.984375 7.8125 -15.359375 4.875 Z M -15.359375 4.875 "/></g></g></g><g fill="#ffffff" fill-opacity="1"><g transform="translate(95.114641, 240.268613)"><g><path d="M -1.15625 1.984375 C -2.125 0.09375 -3.875 -1.578125 -6.796875 -2.546875 C -10.875 -3.90625 -13.578125 -2.46875 -14.5 0.296875 C -15.609375 3.671875 -12.65625 5.453125 -10.359375 6.84375 C -8.75 7.859375 -7.578125 8.609375 -7.90625 9.625 C -8.21875 10.53125 -9.203125 10.90625 -10.65625 10.421875 C -12.140625 9.9375 -13.59375 8.859375 -14.453125 7.328125 L -17.03125 9.078125 C -15.984375 10.984375 -14.234375 12.359375 -11.8125 13.171875 C -8.25 14.34375 -5.375 13.03125 -4.546875 10.515625 C -3.421875 7.125 -6.375 5.375 -8.65625 4 C -10.28125 2.984375 -11.46875 2.171875 -11.09375 1.03125 C -10.8125 0.15625 -9.671875 -0.375 -7.890625 0.203125 C -5.796875 0.90625 -4.453125 2.390625 -3.75 3.859375 Z M -1.15625 1.984375 "/></g></g></g><g fill="#ffffff" fill-opacity="1"><g transform="translate(80.893664, 235.368589)"><g/></g></g><g fill="#ffffff" fill-opacity="1"><g transform="translate(74.454424, 232.681912)"><g/></g></g><g fill="#ffffff" fill-opacity="1"><g transform="translate(68.145762, 229.701532)"><g><path d="M -1.78125 0.953125 C -1.296875 0.015625 -1.65625 -1.171875 -2.578125 -1.65625 C -3.53125 -2.15625 -4.71875 -1.78125 -5.203125 -0.84375 C -5.703125 0.09375 -5.34375 1.265625 -4.390625 1.765625 C -3.46875 2.25 -2.28125 1.890625 -1.78125 0.953125 Z M -1.78125 0.953125 "/></g></g></g></svg>