<svg xmlns="http://www.w3.org/2000/svg" xmlns:xlink="http://www.w3.org/1999/xlink" width="377" zoomAndPan="magnify" viewBox="0 0 283.5 283.500005" height="377" preserveAspectRatio="xMidYMid meet" version="1.0"><defs><g/><clipPath id="e612b6ebd0"><path d="M 0 0 L 282.964844 0 L 282.964844 282.964844 L 0 282.964844 Z M 0 0 " clip-rule="nonzero"/></clipPath><clipPath id="94f0c51df9"><path d="M 141.484375 0 C 63.34375 0 0 63.34375 0 141.484375 C 0 219.621094 63.34375 282.964844 141.484375 282.964844 C 219.621094 282.964844 282.964844 219.621094 282.964844 141.484375 C 282.964844 63.34375 219.621094 0 141.484375 0 Z M 141.484375 0 " clip-rule="nonzero"/></clipPath><clipPath id="812437ed90"><path d="M 110 143 L 161 143 L 161 158.734375 L 110 158.734375 Z M 110 143 " clip-rule="nonzero"/></clipPath><clipPath id="bda286809a"><path d="M 107.050781 125 L 127 125 L 127 157 L 107.050781 157 Z M 107.050781 125 " clip-rule="nonzero"/></clipPath><clipPath id="c3840cf1c5"><path d="M 110 122.796875 L 161 122.796875 L 161 144 L 110 144 Z M 110 122.796875 " clip-rule="nonzero"/></clipPath><clipPath id="d87cb51f40"><path d="M 144 125 L 163.949219 125 L 163.949219 157 L 144 157 Z M 144 125 " clip-rule="nonzero"/></clipPath></defs><g clip-path="url(#e612b6ebd0)"><g clip-path="url(#94f0c51df9)"><path fill="#e2a5ed" d="M 0 0 L 282.964844 0 L 282.964844 282.964844 L 0 282.964844 Z M 0 0 " fill-opacity="1" fill-rule="nonzero"/></g></g><g clip-path="url(#812437ed90)"><path fill="#ffffff" d="M 160.8125 158.082031 L 142.953125 143.476562 C 142.433594 143.050781 141.675781 143.050781 141.152344 143.476562 L 136.34375 147.414062 C 135.859375 147.808594 135.15625 147.808594 134.671875 147.414062 L 129.863281 143.476562 C 129.339844 143.050781 128.582031 143.050781 128.058594 143.476562 L 110.203125 158.082031 C 109.957031 158.28125 110.101562 158.675781 110.421875 158.675781 L 160.59375 158.675781 C 160.910156 158.675781 161.054688 158.28125 160.8125 158.082031 " fill-opacity="1" fill-rule="nonzero"/></g><g clip-path="url(#bda286809a)"><path fill="#ffffff" d="M 125.828125 140.183594 L 107.617188 125.289062 C 107.394531 125.109375 107.058594 125.261719 107.058594 125.546875 L 107.058594 155.980469 C 107.058594 156.265625 107.394531 156.421875 107.617188 156.242188 L 125.828125 141.347656 C 126.199219 141.046875 126.199219 140.484375 125.828125 140.183594 " fill-opacity="1" fill-rule="nonzero"/></g><g clip-path="url(#c3840cf1c5)"><path fill="#ffffff" d="M 110.203125 123.449219 L 134.824219 143.582031 C 135.21875 143.90625 135.792969 143.90625 136.191406 143.582031 L 160.8125 123.449219 C 161.054688 123.25 160.910156 122.855469 160.59375 122.855469 L 110.421875 122.855469 C 110.101562 122.855469 109.957031 123.25 110.203125 123.449219 " fill-opacity="1" fill-rule="nonzero"/></g><g clip-path="url(#d87cb51f40)"><path fill="#ffffff" d="M 163.398438 125.289062 L 145.183594 140.183594 C 144.8125 140.484375 144.8125 141.046875 145.183594 141.347656 L 163.398438 156.242188 C 163.617188 156.421875 163.957031 156.265625 163.957031 155.984375 L 163.957031 125.546875 C 163.957031 125.261719 163.617188 125.109375 163.398438 125.289062 " fill-opacity="1" fill-rule="nonzero"/></g><g fill="#ffffff" fill-opacity="1"><g transform="translate(61.040806, 57.171828)"><g><path d="M 7.296875 -4.046875 C 6.066406 -3.328125 4.796875 -2.9375 3.484375 -2.875 C 2.179688 -2.820312 0.972656 -3.097656 -0.140625 -3.703125 C -1.265625 -4.316406 -2.179688 -5.21875 -2.890625 -6.40625 C -3.597656 -7.601562 -3.945312 -8.835938 -3.9375 -10.109375 C -3.9375 -11.378906 -3.597656 -12.578125 -2.921875 -13.703125 C -2.253906 -14.828125 -1.300781 -15.753906 -0.0625 -16.484375 C 0.976562 -17.097656 2.03125 -17.46875 3.09375 -17.59375 C 4.15625 -17.726562 5.175781 -17.628906 6.15625 -17.296875 L 5.34375 -14.578125 C 3.96875 -15.023438 2.679688 -14.894531 1.484375 -14.1875 C 0.734375 -13.75 0.164062 -13.191406 -0.21875 -12.515625 C -0.601562 -11.847656 -0.785156 -11.125 -0.765625 -10.34375 C -0.742188 -9.570312 -0.515625 -8.8125 -0.078125 -8.0625 C 0.359375 -7.320312 0.914062 -6.753906 1.59375 -6.359375 C 2.269531 -5.972656 2.992188 -5.789062 3.765625 -5.8125 C 4.535156 -5.832031 5.296875 -6.0625 6.046875 -6.5 C 7.242188 -7.207031 7.96875 -8.285156 8.21875 -9.734375 L 11 -9.140625 C 10.832031 -8.097656 10.429688 -7.144531 9.796875 -6.28125 C 9.171875 -5.414062 8.335938 -4.671875 7.296875 -4.046875 Z M 7.296875 -4.046875 "/></g></g></g><g fill="#ffffff" fill-opacity="1"><g transform="translate(73.802408, 49.5428)"><g><path d="M 7.765625 -3.265625 C 6.441406 -2.660156 5.117188 -2.40625 3.796875 -2.5 C 2.484375 -2.59375 1.300781 -3 0.25 -3.71875 C -0.789062 -4.445312 -1.597656 -5.4375 -2.171875 -6.6875 C -2.734375 -7.925781 -2.941406 -9.179688 -2.796875 -10.453125 C -2.660156 -11.722656 -2.191406 -12.882812 -1.390625 -13.9375 C -0.585938 -14.988281 0.472656 -15.816406 1.796875 -16.421875 C 3.109375 -17.015625 4.421875 -17.265625 5.734375 -17.171875 C 7.054688 -17.078125 8.242188 -16.664062 9.296875 -15.9375 C 10.359375 -15.21875 11.171875 -14.238281 11.734375 -13 C 12.304688 -11.75 12.515625 -10.488281 12.359375 -9.21875 C 12.210938 -7.945312 11.738281 -6.785156 10.9375 -5.734375 C 10.132812 -4.679688 9.078125 -3.859375 7.765625 -3.265625 Z M 6.625 -5.78125 C 7.375 -6.113281 7.972656 -6.585938 8.421875 -7.203125 C 8.867188 -7.828125 9.128906 -8.523438 9.203125 -9.296875 C 9.273438 -10.066406 9.128906 -10.847656 8.765625 -11.640625 C 8.410156 -12.429688 7.914062 -13.054688 7.28125 -13.515625 C 6.65625 -13.972656 5.960938 -14.234375 5.203125 -14.296875 C 4.441406 -14.367188 3.6875 -14.238281 2.9375 -13.90625 C 2.1875 -13.5625 1.582031 -13.078125 1.125 -12.453125 C 0.675781 -11.835938 0.421875 -11.144531 0.359375 -10.375 C 0.296875 -9.601562 0.441406 -8.820312 0.796875 -8.03125 C 1.160156 -7.238281 1.648438 -6.613281 2.265625 -6.15625 C 2.890625 -5.695312 3.582031 -5.429688 4.34375 -5.359375 C 5.113281 -5.296875 5.875 -5.4375 6.625 -5.78125 Z M 6.625 -5.78125 "/></g></g></g><g fill="#ffffff" fill-opacity="1"><g transform="translate(89.339378, 42.52711)"><g><path d="M 9.484375 -17.734375 L 13.765625 -4.4375 L 11.25 -3.625 L 2 -9.5625 L 4.609375 -1.484375 L 1.578125 -0.515625 L -2.703125 -13.8125 L -0.15625 -14.625 L 9.046875 -8.671875 L 6.453125 -16.75 Z M 9.484375 -17.734375 "/></g></g></g><g fill="#ffffff" fill-opacity="1"><g transform="translate(105.000665, 37.59546)"><g><path d="M 2.046875 -12.03125 L -2.3125 -11.09375 L -2.859375 -13.671875 L 9.03125 -16.234375 L 9.578125 -13.65625 L 5.21875 -12.71875 L 7.609375 -1.640625 L 4.4375 -0.953125 Z M 2.046875 -12.03125 "/></g></g></g><g fill="#ffffff" fill-opacity="1"><g transform="translate(117.373473, 34.889493)"><g><path d="M 10.484375 -1.234375 L 7.359375 -4.78125 L 7.203125 -4.765625 L 4.40625 -4.4375 L 4.859375 -0.578125 L 1.640625 -0.1875 L 0 -14.0625 L 6.015625 -14.78125 C 7.242188 -14.925781 8.335938 -14.84375 9.296875 -14.53125 C 10.253906 -14.226562 11.019531 -13.726562 11.59375 -13.03125 C 12.164062 -12.332031 12.507812 -11.472656 12.625 -10.453125 C 12.75 -9.421875 12.609375 -8.503906 12.203125 -7.703125 C 11.796875 -6.898438 11.15625 -6.242188 10.28125 -5.734375 L 13.9375 -1.640625 Z M 9.375 -10.078125 C 9.289062 -10.859375 8.972656 -11.421875 8.421875 -11.765625 C 7.867188 -12.117188 7.109375 -12.238281 6.140625 -12.125 L 3.53125 -11.828125 L 4.109375 -7 L 6.71875 -7.296875 C 7.6875 -7.410156 8.394531 -7.707031 8.84375 -8.1875 C 9.289062 -8.675781 9.46875 -9.304688 9.375 -10.078125 Z M 9.375 -10.078125 "/></g></g></g><g fill="#ffffff" fill-opacity="1"><g transform="translate(132.207125, 33.139048)"><g><path d="M 10.828125 -3.140625 L 4.34375 -3.0625 L 3.125 -0.046875 L -0.171875 0 L 5.875 -14.046875 L 9.0625 -14.09375 L 15.484375 -0.203125 L 12.09375 -0.15625 Z M 9.78125 -5.578125 L 7.484375 -10.890625 L 5.34375 -5.515625 Z M 8.28125 -18.09375 L 11.640625 -18.140625 L 8.0625 -15.21875 L 5.640625 -15.1875 Z M 8.28125 -18.09375 "/></g></g></g><g fill="#ffffff" fill-opacity="1"><g transform="translate(147.806623, 33.025317)"><g><path d="M 5.484375 -10.90625 L 1.03125 -11.28125 L 1.25 -13.921875 L 13.375 -12.890625 L 13.15625 -10.25 L 8.703125 -10.625 L 7.75 0.65625 L 4.53125 0.375 Z M 5.484375 -10.90625 "/></g></g></g><g fill="#ffffff" fill-opacity="1"><g transform="translate(160.41967, 34.031258)"><g><path d="M 11.234375 -1 L 4.84375 -2.171875 L 3.078125 0.5625 L -0.171875 -0.03125 L 8.46875 -12.640625 L 11.59375 -12.078125 L 15.234375 2.78125 L 11.890625 2.171875 Z M 10.671875 -3.59375 L 9.4375 -9.25 L 6.296875 -4.390625 Z M 10.671875 -3.59375 "/></g></g></g><g fill="#ffffff" fill-opacity="1"><g transform="translate(175.656519, 36.713007)"><g><path d="M 13.71875 4.234375 L 16.171875 -3.765625 L 10.21875 1.609375 L 8.828125 1.1875 L 6.90625 -6.453125 L 4.484375 1.390625 L 1.578125 0.484375 L 5.703125 -12.859375 L 8.265625 -12.0625 L 10.703125 -2.21875 L 18.171875 -9 L 20.703125 -8.21875 L 16.625 5.140625 Z M 13.71875 4.234375 "/></g></g></g><g fill="#ffffff" fill-opacity="1"><g transform="translate(194.01264, 42.565846)"><g><path d="M 12.46875 2.625 L 11.421875 5 L 1.515625 0.65625 L 7.109375 -12.140625 L 16.78125 -7.90625 L 15.75 -5.53125 L 9.03125 -8.46875 L 7.8125 -5.6875 L 13.75 -3.09375 L 12.734375 -0.796875 L 6.796875 -3.390625 L 5.515625 -0.421875 Z M 12.46875 2.625 "/></g></g></g><g fill="#ffffff" fill-opacity="1"><g transform="translate(206.673694, 48.26861)"><g/></g></g><g fill="#ffffff" fill-opacity="1"><g transform="translate(212.271159, 51.211957)"><g><path d="M 2.1875 1.4375 C 1.71875 1.164062 1.410156 0.773438 1.265625 0.265625 C 1.117188 -0.242188 1.1875 -0.742188 1.46875 -1.234375 C 1.757812 -1.722656 2.15625 -2.023438 2.65625 -2.140625 C 3.164062 -2.265625 3.65625 -2.191406 4.125 -1.921875 C 4.601562 -1.640625 4.910156 -1.253906 5.046875 -0.765625 C 5.191406 -0.273438 5.117188 0.210938 4.828125 0.703125 C 4.546875 1.191406 4.15625 1.503906 3.65625 1.640625 C 3.15625 1.785156 2.664062 1.71875 2.1875 1.4375 Z M 2.1875 1.4375 "/></g></g></g><g fill="#ffffff" fill-opacity="1"><g transform="translate(217.382108, 54.169537)"><g/></g></g><g fill="#ffffff" fill-opacity="1"><g transform="translate(230.32552, 66.137691)"><g><path d="M 3.890625 7.375 C 3.191406 6.132812 2.828125 4.859375 2.796875 3.546875 C 2.773438 2.242188 3.078125 1.039062 3.703125 -0.0625 C 4.335938 -1.164062 5.257812 -2.0625 6.46875 -2.75 C 7.675781 -3.425781 8.914062 -3.75 10.1875 -3.71875 C 11.46875 -3.6875 12.660156 -3.320312 13.765625 -2.625 C 14.867188 -1.925781 15.773438 -0.953125 16.484375 0.296875 C 17.078125 1.347656 17.425781 2.40625 17.53125 3.46875 C 17.632812 4.53125 17.507812 5.546875 17.15625 6.515625 L 14.453125 5.65625 C 14.941406 4.289062 14.84375 3.003906 14.15625 1.796875 C 13.726562 1.035156 13.179688 0.453125 12.515625 0.046875 C 11.859375 -0.347656 11.140625 -0.546875 10.359375 -0.546875 C 9.585938 -0.546875 8.820312 -0.332031 8.0625 0.09375 C 7.3125 0.519531 6.734375 1.0625 6.328125 1.71875 C 5.929688 2.382812 5.734375 3.101562 5.734375 3.875 C 5.734375 4.65625 5.945312 5.425781 6.375 6.1875 C 7.0625 7.394531 8.117188 8.144531 9.546875 8.4375 L 8.890625 11.171875 C 7.847656 11.003906 6.90625 10.59375 6.0625 9.9375 C 5.21875 9.28125 4.492188 8.425781 3.890625 7.375 Z M 3.890625 7.375 "/></g></g></g><g fill="#ffffff" fill-opacity="1"><g transform="translate(237.676343, 79.061513)"><g><path d="M 3.09375 7.84375 C 2.519531 6.507812 2.289062 5.179688 2.40625 3.859375 C 2.53125 2.546875 2.96875 1.367188 3.71875 0.328125 C 4.46875 -0.703125 5.472656 -1.488281 6.734375 -2.03125 C 7.984375 -2.5625 9.238281 -2.738281 10.5 -2.5625 C 11.769531 -2.394531 12.921875 -1.898438 13.953125 -1.078125 C 14.992188 -0.253906 15.800781 0.820312 16.375 2.15625 C 16.945312 3.476562 17.171875 4.796875 17.046875 6.109375 C 16.921875 7.421875 16.484375 8.597656 15.734375 9.640625 C 14.984375 10.691406 13.984375 11.484375 12.734375 12.015625 C 11.472656 12.554688 10.207031 12.734375 8.9375 12.546875 C 7.675781 12.367188 6.53125 11.867188 5.5 11.046875 C 4.46875 10.234375 3.664062 9.164062 3.09375 7.84375 Z M 5.625 6.765625 C 5.945312 7.515625 6.414062 8.117188 7.03125 8.578125 C 7.644531 9.046875 8.335938 9.320312 9.109375 9.40625 C 9.878906 9.488281 10.660156 9.359375 11.453125 9.015625 C 12.242188 8.671875 12.878906 8.191406 13.359375 7.578125 C 13.835938 6.960938 14.117188 6.273438 14.203125 5.515625 C 14.285156 4.753906 14.164062 4 13.84375 3.25 C 13.519531 2.488281 13.050781 1.875 12.4375 1.40625 C 11.832031 0.9375 11.140625 0.660156 10.359375 0.578125 C 9.585938 0.492188 8.804688 0.625 8.015625 0.96875 C 7.222656 1.3125 6.585938 1.789062 6.109375 2.40625 C 5.640625 3.019531 5.359375 3.707031 5.265625 4.46875 C 5.179688 5.238281 5.300781 6.003906 5.625 6.765625 Z M 5.625 6.765625 "/></g></g></g><g fill="#ffffff" fill-opacity="1"><g transform="translate(244.353998, 94.746763)"><g><path d="M 17.53125 9.859375 L 4.140625 13.859375 L 3.375 11.3125 L 9.515625 2.21875 L 1.390625 4.640625 L 0.46875 1.59375 L 13.859375 -2.40625 L 14.625 0.140625 L 8.46875 9.25 L 16.609375 6.8125 Z M 17.53125 9.859375 "/></g></g></g><g fill="#ffffff" fill-opacity="1"><g transform="translate(248.945343, 110.51119)"><g><path d="M 11.984375 2.328125 L 11.140625 -2.0625 L 13.734375 -2.5625 L 16.03125 9.390625 L 13.4375 9.890625 L 12.59375 5.5 L 1.46875 7.640625 L 0.859375 4.46875 Z M 11.984375 2.328125 "/></g></g></g><g fill="#ffffff" fill-opacity="1"><g transform="translate(251.382666, 122.939686)"><g><path d="M 1.015625 10.515625 L 4.625 7.453125 L 4.609375 7.296875 L 4.34375 4.5 L 0.46875 4.875 L 0.15625 1.65625 L 14.0625 0.328125 L 14.640625 6.34375 C 14.753906 7.570312 14.648438 8.65625 14.328125 9.59375 C 14.003906 10.539062 13.488281 11.296875 12.78125 11.859375 C 12.070312 12.421875 11.203125 12.753906 10.171875 12.859375 C 9.140625 12.953125 8.226562 12.785156 7.4375 12.359375 C 6.644531 11.929688 6.003906 11.285156 5.515625 10.421875 L 1.34375 13.96875 Z M 9.859375 9.609375 C 10.640625 9.523438 11.210938 9.210938 11.578125 8.671875 C 11.953125 8.128906 12.09375 7.375 12 6.40625 L 11.75 3.796875 L 6.90625 4.25 L 7.15625 6.859375 C 7.25 7.828125 7.53125 8.546875 8 9.015625 C 8.46875 9.484375 9.085938 9.679688 9.859375 9.609375 Z M 9.859375 9.609375 "/></g></g></g><g fill="#ffffff" fill-opacity="1"><g transform="translate(252.811475, 137.80776)"><g><path d="M 2.90625 10.890625 L 2.96875 4.40625 L -0.03125 3.125 L 0 -0.171875 L 13.921875 6.171875 L 13.890625 9.359375 L -0.140625 15.484375 L -0.109375 12.09375 Z M 5.359375 9.890625 L 10.734375 7.71875 L 5.40625 5.453125 Z M 17.90625 8.671875 L 17.875 12.03125 L 15.03125 8.390625 L 15.0625 5.96875 Z M 17.90625 8.671875 "/></g></g></g><g fill="#ffffff" fill-opacity="1"><g transform="translate(252.587413, 153.406067)"><g><path d="M 10.78125 5.703125 L 11.25 1.265625 L 13.875 1.546875 L 12.59375 13.65625 L 9.96875 13.375 L 10.4375 8.921875 L -0.828125 7.734375 L -0.484375 4.515625 Z M 10.78125 5.703125 "/></g></g></g><g fill="#ffffff" fill-opacity="1"><g transform="translate(251.308502, 165.994373)"><g><path d="M 0.75 11.25 L 2.0625 4.890625 L -0.625 3.0625 L 0.03125 -0.171875 L 12.46875 8.734375 L 11.828125 11.859375 L -3.109375 15.171875 L -2.4375 11.84375 Z M 3.359375 10.734375 L 9.046875 9.640625 L 4.25 6.390625 Z M 3.359375 10.734375 "/></g></g></g><g fill="#ffffff" fill-opacity="1"><g transform="translate(248.297491, 181.169565)"><g><path d="M -4.53125 13.625 L 3.421875 16.25 L -1.84375 10.171875 L -1.390625 8.796875 L 6.296875 7.046875 L -1.484375 4.453125 L -0.515625 1.578125 L 12.734375 5.984375 L 11.890625 8.515625 L 2 10.75 L 8.609375 18.359375 L 7.765625 20.875 L -5.5 16.515625 Z M -4.53125 13.625 "/></g></g></g><g fill="#ffffff" fill-opacity="1"><g transform="translate(242.048434, 199.394618)"><g><path d="M -2.890625 12.40625 L -5.25 11.3125 L -0.703125 1.5 L 11.96875 7.375 L 7.53125 16.953125 L 5.171875 15.859375 L 8.265625 9.203125 L 5.515625 7.9375 L 2.78125 13.828125 L 0.5 12.765625 L 3.234375 6.875 L 0.3125 5.515625 Z M -2.890625 12.40625 "/></g></g></g><g fill="#ffffff" fill-opacity="1"><g transform="translate(236.072825, 211.929233)"><g/></g></g><g fill="#ffffff" fill-opacity="1"><g transform="translate(233.008937, 217.461648)"><g><path d="M -1.5 2.15625 C -1.21875 1.6875 -0.816406 1.390625 -0.296875 1.265625 C 0.210938 1.140625 0.707031 1.222656 1.1875 1.515625 C 1.675781 1.804688 1.972656 2.203125 2.078125 2.703125 C 2.191406 3.203125 2.109375 3.6875 1.828125 4.15625 C 1.546875 4.625 1.15625 4.925781 0.65625 5.0625 C 0.15625 5.195312 -0.335938 5.117188 -0.828125 4.828125 C -1.304688 4.535156 -1.609375 4.132812 -1.734375 3.625 C -1.859375 3.113281 -1.78125 2.625 -1.5 2.15625 Z M -1.5 2.15625 "/></g></g></g><g fill="#ffffff" fill-opacity="1"><g transform="translate(52.593164, 221.378004)"><g><path d="M -4.046875 -7.296875 C -3.328125 -6.066406 -2.9375 -4.796875 -2.875 -3.484375 C -2.820312 -2.179688 -3.097656 -0.972656 -3.703125 0.140625 C -4.316406 1.265625 -5.21875 2.179688 -6.40625 2.890625 C -7.601562 3.597656 -8.835938 3.945312 -10.109375 3.9375 C -11.378906 3.9375 -12.578125 3.597656 -13.703125 2.921875 C -14.828125 2.253906 -15.753906 1.300781 -16.484375 0.0625 C -17.097656 -0.976562 -17.46875 -2.03125 -17.59375 -3.09375 C -17.726562 -4.15625 -17.628906 -5.175781 -17.296875 -6.15625 L -14.578125 -5.34375 C -15.023438 -3.96875 -14.894531 -2.679688 -14.1875 -1.484375 C -13.75 -0.734375 -13.191406 -0.164062 -12.515625 0.21875 C -11.847656 0.601562 -11.125 0.785156 -10.34375 0.765625 C -9.570312 0.742188 -8.8125 0.515625 -8.0625 0.078125 C -7.320312 -0.359375 -6.753906 -0.914062 -6.359375 -1.59375 C -5.972656 -2.269531 -5.789062 -2.992188 -5.8125 -3.765625 C -5.832031 -4.535156 -6.0625 -5.296875 -6.5 -6.046875 C -7.207031 -7.242188 -8.285156 -7.96875 -9.734375 -8.21875 L -9.140625 -11 C -8.097656 -10.832031 -7.144531 -10.429688 -6.28125 -9.796875 C -5.414062 -9.171875 -4.671875 -8.335938 -4.046875 -7.296875 Z M -4.046875 -7.296875 "/></g></g></g><g fill="#ffffff" fill-opacity="1"><g transform="translate(44.964136, 208.616396)"><g><path d="M -3.265625 -7.765625 C -2.660156 -6.441406 -2.40625 -5.117188 -2.5 -3.796875 C -2.59375 -2.484375 -3 -1.300781 -3.71875 -0.25 C -4.445312 0.789062 -5.4375 1.597656 -6.6875 2.171875 C -7.925781 2.734375 -9.179688 2.941406 -10.453125 2.796875 C -11.722656 2.660156 -12.882812 2.191406 -13.9375 1.390625 C -14.988281 0.585938 -15.816406 -0.472656 -16.421875 -1.796875 C -17.015625 -3.109375 -17.265625 -4.421875 -17.171875 -5.734375 C -17.078125 -7.054688 -16.664062 -8.242188 -15.9375 -9.296875 C -15.21875 -10.359375 -14.238281 -11.171875 -13 -11.734375 C -11.75 -12.304688 -10.488281 -12.515625 -9.21875 -12.359375 C -7.945312 -12.210938 -6.785156 -11.738281 -5.734375 -10.9375 C -4.679688 -10.132812 -3.859375 -9.078125 -3.265625 -7.765625 Z M -5.78125 -6.625 C -6.113281 -7.375 -6.585938 -7.972656 -7.203125 -8.421875 C -7.828125 -8.867188 -8.523438 -9.128906 -9.296875 -9.203125 C -10.066406 -9.273438 -10.847656 -9.128906 -11.640625 -8.765625 C -12.429688 -8.410156 -13.054688 -7.914062 -13.515625 -7.28125 C -13.972656 -6.65625 -14.234375 -5.960938 -14.296875 -5.203125 C -14.367188 -4.441406 -14.238281 -3.6875 -13.90625 -2.9375 C -13.5625 -2.1875 -13.078125 -1.582031 -12.453125 -1.125 C -11.835938 -0.675781 -11.144531 -0.421875 -10.375 -0.359375 C -9.601562 -0.296875 -8.820312 -0.441406 -8.03125 -0.796875 C -7.238281 -1.160156 -6.613281 -1.648438 -6.15625 -2.265625 C -5.695312 -2.890625 -5.429688 -3.582031 -5.359375 -4.34375 C -5.296875 -5.113281 -5.4375 -5.875 -5.78125 -6.625 Z M -5.78125 -6.625 "/></g></g></g><g fill="#ffffff" fill-opacity="1"><g transform="translate(37.948448, 193.079433)"><g><path d="M -17.734375 -9.484375 L -4.4375 -13.765625 L -3.625 -11.25 L -9.5625 -2 L -1.484375 -4.609375 L -0.515625 -1.578125 L -13.8125 2.703125 L -14.625 0.15625 L -8.671875 -9.046875 L -16.75 -6.453125 Z M -17.734375 -9.484375 "/></g></g></g><g fill="#ffffff" fill-opacity="1"><g transform="translate(33.016798, 177.418148)"><g><path d="M -12.03125 -2.046875 L -11.09375 2.3125 L -13.671875 2.859375 L -16.234375 -9.03125 L -13.65625 -9.578125 L -12.71875 -5.21875 L -1.640625 -7.609375 L -0.953125 -4.4375 Z M -12.03125 -2.046875 "/></g></g></g><g fill="#ffffff" fill-opacity="1"><g transform="translate(30.310829, 165.045333)"><g><path d="M -1.234375 -10.484375 L -4.78125 -7.359375 L -4.765625 -7.203125 L -4.4375 -4.40625 L -0.578125 -4.859375 L -0.1875 -1.640625 L -14.0625 0 L -14.78125 -6.015625 C -14.925781 -7.242188 -14.84375 -8.335938 -14.53125 -9.296875 C -14.226562 -10.253906 -13.726562 -11.019531 -13.03125 -11.59375 C -12.332031 -12.164062 -11.472656 -12.507812 -10.453125 -12.625 C -9.421875 -12.75 -8.503906 -12.609375 -7.703125 -12.203125 C -6.898438 -11.796875 -6.242188 -11.15625 -5.734375 -10.28125 L -1.640625 -13.9375 Z M -10.078125 -9.375 C -10.859375 -9.289062 -11.421875 -8.972656 -11.765625 -8.421875 C -12.117188 -7.867188 -12.238281 -7.109375 -12.125 -6.140625 L -11.828125 -3.53125 L -7 -4.109375 L -7.296875 -6.71875 C -7.410156 -7.6875 -7.707031 -8.394531 -8.1875 -8.84375 C -8.675781 -9.289062 -9.304688 -9.46875 -10.078125 -9.375 Z M -10.078125 -9.375 "/></g></g></g><g fill="#ffffff" fill-opacity="1"><g transform="translate(28.560387, 150.211686)"><g><path d="M -3.140625 -10.828125 L -3.0625 -4.34375 L -0.046875 -3.125 L 0 0.171875 L -14.046875 -5.875 L -14.09375 -9.0625 L -0.203125 -15.484375 L -0.15625 -12.09375 Z M -5.578125 -9.78125 L -10.890625 -7.484375 L -5.515625 -5.34375 Z M -18.09375 -8.28125 L -18.140625 -11.640625 L -15.21875 -8.0625 L -15.1875 -5.640625 Z M -18.09375 -8.28125 "/></g></g></g><g fill="#ffffff" fill-opacity="1"><g transform="translate(28.446657, 134.612188)"><g><path d="M -10.90625 -5.484375 L -11.28125 -1.03125 L -13.921875 -1.25 L -12.890625 -13.375 L -10.25 -13.15625 L -10.625 -8.703125 L 0.65625 -7.75 L 0.375 -4.53125 Z M -10.90625 -5.484375 "/></g></g></g><g fill="#ffffff" fill-opacity="1"><g transform="translate(29.452595, 121.999136)"><g><path d="M -1 -11.234375 L -2.171875 -4.84375 L 0.5625 -3.078125 L -0.03125 0.171875 L -12.640625 -8.46875 L -12.078125 -11.59375 L 2.78125 -15.234375 L 2.171875 -11.890625 Z M -3.59375 -10.671875 L -9.25 -9.4375 L -4.390625 -6.296875 Z M -3.59375 -10.671875 "/></g></g></g><g fill="#ffffff" fill-opacity="1"><g transform="translate(32.134346, 106.762294)"><g><path d="M 4.234375 -13.71875 L -3.765625 -16.171875 L 1.609375 -10.21875 L 1.1875 -8.828125 L -6.453125 -6.90625 L 1.390625 -4.484375 L 0.484375 -1.578125 L -12.859375 -5.703125 L -12.0625 -8.265625 L -2.21875 -10.703125 L -9 -18.171875 L -8.21875 -20.703125 L 5.140625 -16.625 Z M 4.234375 -13.71875 "/></g></g></g><g fill="#ffffff" fill-opacity="1"><g transform="translate(37.987183, 88.406174)"><g><path d="M 2.625 -12.46875 L 5 -11.421875 L 0.65625 -1.515625 L -12.140625 -7.109375 L -7.90625 -16.78125 L -5.53125 -15.75 L -8.46875 -9.03125 L -5.6875 -7.8125 L -3.09375 -13.75 L -0.796875 -12.734375 L -3.390625 -6.796875 L -0.421875 -5.515625 Z M 2.625 -12.46875 "/></g></g></g><g fill="#ffffff" fill-opacity="1"><g transform="translate(43.689948, 75.745105)"><g/></g></g><g fill="#ffffff" fill-opacity="1"><g transform="translate(46.633296, 70.14763)"><g><path d="M 1.4375 -2.1875 C 1.164062 -1.71875 0.773438 -1.410156 0.265625 -1.265625 C -0.242188 -1.117188 -0.742188 -1.1875 -1.234375 -1.46875 C -1.722656 -1.757812 -2.023438 -2.15625 -2.140625 -2.65625 C -2.265625 -3.164062 -2.191406 -3.65625 -1.921875 -4.125 C -1.640625 -4.601562 -1.253906 -4.910156 -0.765625 -5.046875 C -0.273438 -5.191406 0.210938 -5.117188 0.703125 -4.828125 C 1.191406 -4.546875 1.503906 -4.15625 1.640625 -3.65625 C 1.785156 -3.15625 1.71875 -2.664062 1.4375 -2.1875 Z M 1.4375 -2.1875 "/></g></g></g><g fill="#ffffff" fill-opacity="1"><g transform="translate(49.590874, 65.036707)"><g/></g></g><g fill="#ffffff" fill-opacity="1"><g transform="translate(215.783952, 225.413183)"><g><path d="M -7.296875 4.046875 C -6.066406 3.328125 -4.796875 2.9375 -3.484375 2.875 C -2.179688 2.820312 -0.972656 3.097656 0.140625 3.703125 C 1.265625 4.316406 2.179688 5.21875 2.890625 6.40625 C 3.597656 7.601562 3.945312 8.835938 3.9375 10.109375 C 3.9375 11.378906 3.597656 12.578125 2.921875 13.703125 C 2.253906 14.828125 1.300781 15.753906 0.0625 16.484375 C -0.976562 17.097656 -2.03125 17.46875 -3.09375 17.59375 C -4.15625 17.726562 -5.175781 17.628906 -6.15625 17.296875 L -5.34375 14.578125 C -3.96875 15.023438 -2.679688 14.894531 -1.484375 14.1875 C -0.734375 13.75 -0.164062 13.191406 0.21875 12.515625 C 0.601562 11.847656 0.785156 11.125 0.765625 10.34375 C 0.742188 9.570312 0.515625 8.8125 0.078125 8.0625 C -0.359375 7.320312 -0.914062 6.753906 -1.59375 6.359375 C -2.269531 5.972656 -2.992188 5.789062 -3.765625 5.8125 C -4.535156 5.832031 -5.296875 6.0625 -6.046875 6.5 C -7.242188 7.207031 -7.96875 8.285156 -8.21875 9.734375 L -11 9.140625 C -10.832031 8.097656 -10.429688 7.144531 -9.796875 6.28125 C -9.171875 5.414062 -8.335938 4.671875 -7.296875 4.046875 Z M -7.296875 4.046875 "/></g></g></g><g fill="#ffffff" fill-opacity="1"><g transform="translate(203.022343, 233.042214)"><g><path d="M -7.765625 3.265625 C -6.441406 2.660156 -5.117188 2.40625 -3.796875 2.5 C -2.484375 2.59375 -1.300781 3 -0.25 3.71875 C 0.789062 4.445312 1.597656 5.4375 2.171875 6.6875 C 2.734375 7.925781 2.941406 9.179688 2.796875 10.453125 C 2.660156 11.722656 2.191406 12.882812 1.390625 13.9375 C 0.585938 14.988281 -0.472656 15.816406 -1.796875 16.421875 C -3.109375 17.015625 -4.421875 17.265625 -5.734375 17.171875 C -7.054688 17.078125 -8.242188 16.664062 -9.296875 15.9375 C -10.359375 15.21875 -11.171875 14.238281 -11.734375 13 C -12.304688 11.75 -12.515625 10.488281 -12.359375 9.21875 C -12.210938 7.945312 -11.738281 6.785156 -10.9375 5.734375 C -10.132812 4.679688 -9.078125 3.859375 -7.765625 3.265625 Z M -6.625 5.78125 C -7.375 6.113281 -7.972656 6.585938 -8.421875 7.203125 C -8.867188 7.828125 -9.128906 8.523438 -9.203125 9.296875 C -9.273438 10.066406 -9.128906 10.847656 -8.765625 11.640625 C -8.410156 12.429688 -7.914062 13.054688 -7.28125 13.515625 C -6.65625 13.972656 -5.960938 14.234375 -5.203125 14.296875 C -4.441406 14.367188 -3.6875 14.238281 -2.9375 13.90625 C -2.1875 13.5625 -1.582031 13.078125 -1.125 12.453125 C -0.675781 11.835938 -0.421875 11.144531 -0.359375 10.375 C -0.296875 9.601562 -0.441406 8.820312 -0.796875 8.03125 C -1.160156 7.238281 -1.648438 6.613281 -2.265625 6.15625 C -2.890625 5.695312 -3.582031 5.429688 -4.34375 5.359375 C -5.113281 5.296875 -5.875 5.4375 -6.625 5.78125 Z M -6.625 5.78125 "/></g></g></g><g fill="#ffffff" fill-opacity="1"><g transform="translate(187.485395, 240.057895)"><g><path d="M -9.484375 17.734375 L -13.765625 4.4375 L -11.25 3.625 L -2 9.5625 L -4.609375 1.484375 L -1.578125 0.515625 L 2.703125 13.8125 L 0.15625 14.625 L -9.046875 8.671875 L -6.453125 16.75 Z M -9.484375 17.734375 "/></g></g></g><g fill="#ffffff" fill-opacity="1"><g transform="translate(171.824095, 244.989554)"><g><path d="M -2.046875 12.03125 L 2.3125 11.09375 L 2.859375 13.671875 L -9.03125 16.234375 L -9.578125 13.65625 L -5.21875 12.71875 L -7.609375 1.640625 L -4.4375 0.953125 Z M -2.046875 12.03125 "/></g></g></g><g fill="#ffffff" fill-opacity="1"><g transform="translate(159.45128, 247.695522)"><g><path d="M -10.484375 1.234375 L -7.359375 4.78125 L -7.203125 4.765625 L -4.40625 4.4375 L -4.859375 0.578125 L -1.640625 0.1875 L 0 14.0625 L -6.015625 14.78125 C -7.242188 14.925781 -8.335938 14.84375 -9.296875 14.53125 C -10.253906 14.226562 -11.019531 13.726562 -11.59375 13.03125 C -12.164062 12.332031 -12.507812 11.472656 -12.625 10.453125 C -12.75 9.421875 -12.609375 8.503906 -12.203125 7.703125 C -11.796875 6.898438 -11.15625 6.242188 -10.28125 5.734375 L -13.9375 1.640625 Z M -9.375 10.078125 C -9.289062 10.859375 -8.972656 11.421875 -8.421875 11.765625 C -7.867188 12.117188 -7.109375 12.238281 -6.140625 12.125 L -3.53125 11.828125 L -4.109375 7 L -6.71875 7.296875 C -7.6875 7.410156 -8.394531 7.707031 -8.84375 8.1875 C -9.289062 8.675781 -9.46875 9.304688 -9.375 10.078125 Z M -9.375 10.078125 "/></g></g></g><g fill="#ffffff" fill-opacity="1"><g transform="translate(144.61765, 249.445959)"><g><path d="M -10.828125 3.140625 L -4.34375 3.0625 L -3.125 0.046875 L 0.171875 0 L -5.875 14.046875 L -9.0625 14.09375 L -15.484375 0.203125 L -12.09375 0.15625 Z M -9.78125 5.578125 L -7.484375 10.890625 L -5.34375 5.515625 Z M -8.28125 18.09375 L -11.640625 18.140625 L -8.0625 15.21875 L -5.640625 15.1875 Z M -8.28125 18.09375 "/></g></g></g><g fill="#ffffff" fill-opacity="1"><g transform="translate(129.018136, 249.559704)"><g><path d="M -5.484375 10.90625 L -1.03125 11.28125 L -1.25 13.921875 L -13.375 12.890625 L -13.15625 10.25 L -8.703125 10.625 L -7.75 -0.65625 L -4.53125 -0.375 Z M -5.484375 10.90625 "/></g></g></g><g fill="#ffffff" fill-opacity="1"><g transform="translate(116.405091, 248.553774)"><g><path d="M -11.234375 1 L -4.84375 2.171875 L -3.078125 -0.5625 L 0.171875 0.03125 L -8.46875 12.640625 L -11.59375 12.078125 L -15.234375 -2.78125 L -11.890625 -2.171875 Z M -10.671875 3.59375 L -9.4375 9.25 L -6.296875 4.390625 Z M -10.671875 3.59375 "/></g></g></g><g fill="#ffffff" fill-opacity="1"><g transform="translate(101.168249, 245.872001)"><g><path d="M -13.71875 -4.234375 L -16.171875 3.765625 L -10.21875 -1.609375 L -8.828125 -1.1875 L -6.90625 6.453125 L -4.484375 -1.390625 L -1.578125 -0.484375 L -5.703125 12.859375 L -8.265625 12.0625 L -10.703125 2.21875 L -18.171875 9 L -20.703125 8.21875 L -16.625 -5.140625 Z M -13.71875 -4.234375 "/></g></g></g><g fill="#ffffff" fill-opacity="1"><g transform="translate(82.812128, 240.019161)"><g><path d="M -12.46875 -2.625 L -11.421875 -5 L -1.515625 -0.65625 L -7.109375 12.140625 L -16.78125 7.90625 L -15.75 5.53125 L -9.03125 8.46875 L -7.8125 5.6875 L -13.75 3.09375 L -12.734375 0.796875 L -6.796875 3.390625 L -5.515625 0.421875 Z M -12.46875 -2.625 "/></g></g></g><g fill="#ffffff" fill-opacity="1"><g transform="translate(70.151052, 234.316407)"><g/></g></g><g fill="#ffffff" fill-opacity="1"><g transform="translate(64.55359, 231.373054)"><g><path d="M -2.1875 -1.4375 C -1.71875 -1.164062 -1.410156 -0.773438 -1.265625 -0.265625 C -1.117188 0.242188 -1.1875 0.742188 -1.46875 1.234375 C -1.757812 1.722656 -2.15625 2.023438 -2.65625 2.140625 C -3.164062 2.265625 -3.65625 2.191406 -4.125 1.921875 C -4.601562 1.640625 -4.910156 1.253906 -5.046875 0.765625 C -5.191406 0.273438 -5.117188 -0.210938 -4.828125 -0.703125 C -4.546875 -1.191406 -4.15625 -1.503906 -3.65625 -1.640625 C -3.15625 -1.785156 -2.664062 -1.71875 -2.1875 -1.4375 Z M -2.1875 -1.4375 "/></g></g></g><g fill="#ffffff" fill-opacity="1"><g transform="translate(59.44266, 228.415492)"><g/></g></g></svg>